<svg width="36" height="43" viewBox="0 0 36 43" fill="none" xmlns="http://www.w3.org/2000/svg">
<path fill-rule="evenodd" clip-rule="evenodd" d="M0.921525 23.7279C-1.24427 31.8108 3.55245 40.1189 11.6353 42.2847C19.7181 44.4505 28.0263 39.6538 30.1921 31.5709C31.3597 27.2132 30.5036 22.79 28.1999 19.2991L31.8324 16.3023L35.8709 1.23028L32.578 0.347942L29.087 13.3763L25.6131 16.3118C23.9074 14.7965 21.8322 13.6449 19.4783 13.0142C11.3955 10.8484 3.08732 15.6451 0.921525 23.7279ZM22.6791 18.7911C21.4844 17.8294 20.0745 17.0954 18.4979 16.673C12.4358 15.0486 6.20468 18.6462 4.58034 24.7083C2.956 30.7704 6.55354 37.0015 12.6157 38.6259C18.6778 40.2502 24.9089 36.6527 26.5333 30.5906C27.3714 27.4627 26.8193 24.2899 25.2558 21.728L20.7826 25.4185C21.2657 26.5479 21.3876 27.8415 21.045 29.12C20.2329 32.1511 17.1173 33.9498 14.0862 33.1377C11.0552 32.3255 9.25641 29.2099 10.0686 26.1789C10.8808 23.1478 13.9963 21.349 17.0274 22.1612C17.4308 22.2693 17.8124 22.4182 18.1689 22.6022L22.6791 18.7911Z" fill="#FF5C00"/>
</svg>
