<svg width="46" height="48" viewBox="0 0 46 48" fill="none" xmlns="http://www.w3.org/2000/svg">
<path d="M33.7303 30.6059H31.5988L30.8433 29.8548C32.5295 27.835 33.7619 25.4558 34.4522 22.8876C35.1425 20.3194 35.2738 17.6256 34.8365 14.9989C33.5684 7.26501 27.3088 1.08898 19.7541 0.143105C17.0981 -0.203349 14.4005 0.0812656 11.8676 0.975168C9.33467 1.86907 7.03367 3.34857 5.14064 5.30045C3.24761 7.25233 1.81272 9.62486 0.945766 12.2365C0.0788154 14.8481 -0.197218 17.6296 0.13879 20.3682C1.05615 28.1578 7.04597 34.612 14.5467 35.9195C17.0942 36.3704 19.7067 36.235 22.1975 35.5232C24.6883 34.8114 26.9957 33.5408 28.9547 31.8022L29.6831 32.5811V34.7789L41.1501 46.6024C42.2564 47.743 44.0641 47.743 45.1703 46.6024C46.2766 45.4618 46.2766 43.5978 45.1703 42.4572L33.7303 30.6059ZM17.5416 30.6059C10.8233 30.6059 5.40011 25.0141 5.40011 18.087C5.40011 11.1598 10.8233 5.56799 17.5416 5.56799C24.2599 5.56799 29.6831 11.1598 29.6831 18.087C29.6831 25.0141 24.2599 30.6059 17.5416 30.6059Z" fill="#FAC98A"/>
</svg>
