<svg width="179" height="36" viewBox="0 0 179 36" fill="none" xmlns="http://www.w3.org/2000/svg">
<g clip-path="url(#clip0_5_136)">
<path d="M25.2351 6.20065C25.2351 6.65995 25.0771 7.08392 24.761 7.47256C24.48 7.82587 24.1463 8.09085 23.76 8.26753C22.882 7.63155 21.8107 7.03091 20.5463 6.46563C19.3171 5.90031 17.719 5.61765 15.7522 5.61765C13.6097 5.61765 11.678 6.11231 9.95709 7.1016C8.27122 8.09085 6.91904 9.57476 5.90048 11.5533C4.91709 13.4965 4.42535 15.9167 4.42535 18.8139C4.42535 23.1597 5.47904 26.4278 7.58635 28.6184C9.72878 30.8089 12.5034 31.9042 15.9103 31.9042C17.7366 31.9042 19.3347 31.6392 20.7044 31.1092C22.0741 30.5793 23.198 29.9786 24.0761 29.3073C24.4273 29.4487 24.761 29.7136 25.0771 30.1023C25.3932 30.4556 25.5512 30.8796 25.5512 31.3742C25.5512 31.7275 25.4459 32.0808 25.2351 32.4341C25.0595 32.7521 24.7434 33.0701 24.2868 33.3881C23.479 33.9534 22.3727 34.448 20.9678 34.872C19.5629 35.3313 17.7717 35.5609 15.5941 35.5609C12.679 35.5609 10.0273 34.9427 7.63904 33.7061C5.28587 32.4341 3.42439 30.5616 2.05463 28.0884C0.684878 25.6152 0 22.5237 0 18.8139C0 15.1041 0.702439 11.995 2.10732 9.48646C3.54732 6.97794 5.42635 5.10538 7.74439 3.86877C10.0976 2.59684 12.6615 1.96088 15.4361 1.96088C17.3678 1.96088 19.0712 2.17287 20.5463 2.59684C22.0215 3.02082 23.1629 3.56845 23.9707 4.23976C24.8137 4.87569 25.2351 5.52935 25.2351 6.20065Z" fill="#004164"/>
<path d="M30.9512 2.64985C30.9512 1.90789 31.2146 1.2896 31.7415 0.794955C32.2683 0.264986 32.9181 0 33.6907 0C34.4985 0 35.1483 0.264986 35.64 0.794955C36.1317 1.2896 36.3776 1.90789 36.3776 2.64985C36.3776 3.39181 36.1317 4.02777 35.64 4.55776C35.1483 5.05238 34.4985 5.29971 33.6907 5.29971C32.9181 5.29971 32.2683 5.05238 31.7415 4.55776C31.2146 4.02777 30.9512 3.39181 30.9512 2.64985ZM31.5834 20.8808H35.7981V34.766C35.6225 34.8367 35.359 34.9073 35.0078 34.978C34.6566 35.084 34.2702 35.137 33.8488 35.137C33.1112 35.137 32.5493 34.9957 32.1629 34.713C31.7766 34.395 31.5834 33.9004 31.5834 33.2291V20.8808ZM35.7981 22.9477H31.5834V10.4934C31.759 10.4228 32.0225 10.3521 32.3737 10.2814C32.76 10.1754 33.1639 10.1224 33.5854 10.1224C34.3229 10.1224 34.8673 10.2814 35.2185 10.5994C35.6049 10.882 35.7981 11.3767 35.7981 12.0833V22.9477Z" fill="#004164"/>
<path d="M63.8783 18.7079V24.1136H59.6635V18.9199C59.6635 16.9413 59.1013 15.4928 57.9774 14.5742C56.8887 13.6555 55.4135 13.1962 53.5522 13.1962C52.1474 13.1962 50.9005 13.3729 49.8118 13.7262C48.7231 14.0795 47.7922 14.4858 47.0196 14.9451V24.1136H42.8048V15.1571C42.8048 14.4152 42.9452 13.8145 43.2265 13.3552C43.5426 12.8606 44.0692 12.3836 44.807 11.9243C45.72 11.3943 46.9318 10.8997 48.4422 10.4404C49.9522 9.94576 51.6557 9.69843 53.5522 9.69843C56.7483 9.69843 59.2596 10.4404 61.0861 11.9243C62.9474 13.3729 63.8783 15.6341 63.8783 18.7079ZM42.8048 21.1988H47.0196V34.766C46.8439 34.8367 46.5805 34.9073 46.2292 34.978C45.8783 35.084 45.4918 35.137 45.0704 35.137C44.3326 35.137 43.7709 34.9957 43.3844 34.713C42.9983 34.395 42.8048 33.9004 42.8048 33.2291V21.1988ZM59.6635 21.1988H63.8783V34.766C63.7026 34.8367 63.4213 34.9073 63.0352 34.978C62.6839 35.084 62.3152 35.137 61.9287 35.137C61.1561 35.137 60.5765 34.9957 60.1904 34.713C59.8391 34.395 59.6635 33.9004 59.6635 33.2291V21.1988Z" fill="#004164"/>
<path d="M71.4118 34.872H69.7257C69.48 34.66 69.2692 34.395 69.0935 34.077C68.9531 33.7237 68.8831 33.3704 68.8831 33.0171C68.8831 32.5931 68.9709 32.2045 69.1465 31.8512C69.357 31.4625 69.5853 31.0916 69.8313 30.7383L86.0048 10.3874H87.6383C87.9191 10.6347 88.1296 10.9174 88.2704 11.2354C88.4457 11.5533 88.5335 11.9067 88.5335 12.2953C88.5335 12.6839 88.4457 13.0549 88.2704 13.4083C88.0948 13.7615 87.8487 14.1325 87.5326 14.5212L71.4118 34.872ZM87.0587 10.3874V13.8852H69.6731C69.5678 13.7086 69.4626 13.4612 69.357 13.1432C69.2518 12.8253 69.1991 12.4896 69.1991 12.1363C69.1991 11.5357 69.3396 11.094 69.6205 10.8114C69.9013 10.5287 70.2878 10.3874 70.7796 10.3874H87.0587ZM70.0422 34.872V31.4272H88.4283C88.5335 31.5685 88.6391 31.7982 88.7444 32.1162C88.8496 32.3988 88.9026 32.7345 88.9026 33.1231C88.9026 33.6884 88.7622 34.1301 88.4809 34.448C88.2 34.7307 87.7961 34.872 87.2692 34.872H70.0422Z" fill="#004164"/>
<path d="M95.7513 25.3326L95.5405 21.9937L111.451 19.8209C111.31 17.8776 110.643 16.2877 109.449 15.0512C108.255 13.7792 106.604 13.1432 104.497 13.1432C102.319 13.1432 100.51 13.9382 99.07 15.5281C97.6653 17.0827 96.9631 19.3262 96.9631 22.2587V23.4247C97.2087 26.2511 98.1218 28.4064 99.7026 29.8903C101.318 31.3389 103.513 32.0632 106.288 32.0632C107.763 32.0632 109.097 31.8158 110.292 31.3212C111.486 30.8266 112.434 30.2966 113.137 29.7313C113.523 29.9786 113.821 30.2789 114.032 30.6322C114.278 30.9502 114.401 31.3212 114.401 31.7452C114.401 32.4165 114.015 33.0524 113.242 33.6531C112.504 34.2184 111.503 34.6777 110.239 35.031C109.01 35.3843 107.623 35.5609 106.077 35.5609C103.373 35.5609 101.02 35.0663 99.0174 34.077C97.0509 33.0878 95.5231 31.6215 94.434 29.6783C93.3805 27.6997 92.8535 25.2972 92.8535 22.4707C92.8535 20.4568 93.1348 18.6726 93.6965 17.118C94.2935 15.5281 95.1013 14.1855 96.12 13.0903C97.1735 11.995 98.4205 11.1647 99.8605 10.5994C101.3 9.99877 102.863 9.69843 104.549 9.69843C106.692 9.69843 108.571 10.1578 110.187 11.0764C111.837 11.995 113.119 13.2846 114.032 14.9451C114.98 16.5704 115.455 18.4429 115.455 20.5628C115.455 21.3401 115.279 21.9054 114.928 22.2587C114.577 22.5767 114.085 22.771 113.453 22.8417L95.7513 25.3326Z" fill="#004164"/>
<path d="M119.854 20.8808H124.068V28.1944C124.068 29.6077 124.472 30.6146 125.28 31.2152C126.088 31.7805 127.194 32.0632 128.599 32.0632C129.196 32.0632 129.863 31.9572 130.601 31.7452C131.339 31.5332 131.953 31.2859 132.445 31.0032C132.656 31.2152 132.849 31.4802 133.024 31.7982C133.2 32.1161 133.288 32.4871 133.288 32.9111C133.288 33.6884 132.831 34.3244 131.918 34.819C131.005 35.3137 129.74 35.561 128.125 35.561C125.667 35.561 123.664 35.0133 122.119 33.918C120.609 32.8228 119.854 31.0032 119.854 28.4594V20.8808ZM122.014 14.4152V10.9174H132.708C132.814 11.0587 132.919 11.2884 133.024 11.6064C133.13 11.9243 133.183 12.26 133.183 12.6133C133.183 13.1786 133.042 13.6202 132.761 13.9382C132.48 14.2562 132.094 14.4152 131.602 14.4152H122.014ZM124.068 22.4707H119.854V3.28581C120.029 3.21514 120.293 3.14448 120.644 3.07382C121.03 2.96782 121.434 2.91483 121.856 2.91483C122.593 2.91483 123.137 3.07382 123.489 3.3918C123.875 3.67445 124.068 4.15143 124.068 4.82273V22.4707Z" fill="#004164"/>
<path d="M141.675 10.9174V14.4152H152.78V10.9174H141.675Z" fill="#004164"/>
<path fill-rule="evenodd" clip-rule="evenodd" d="M141.675 28.1944V22.4707V20.8808V14.4152H139.621V10.9174H141.675V4.82273C141.675 4.15143 141.482 3.67445 141.096 3.3918C140.744 3.07382 140.2 2.91483 139.462 2.91483C139.041 2.91483 138.637 2.96782 138.251 3.07382C137.899 3.14448 137.636 3.21514 137.461 3.28581V20.8808V22.4707V28.4594C137.461 31.0032 138.216 32.8228 139.726 33.918C141.271 35.0133 143.273 35.561 145.732 35.561C147.347 35.561 148.612 35.3137 149.525 34.819C150.438 34.3244 150.895 33.6884 150.895 32.9111C150.895 32.4871 150.807 32.1161 150.631 31.7982C150.456 31.4802 150.262 31.2152 150.052 31.0032C149.56 31.2859 148.945 31.5332 148.208 31.7452C147.47 31.9572 146.803 32.0632 146.206 32.0632C144.801 32.0632 143.695 31.7805 142.887 31.2152C142.079 30.6146 141.675 29.6077 141.675 28.1944Z" fill="#004164"/>
<path fill-rule="evenodd" clip-rule="evenodd" d="M166.165 36C173.078 36 178.683 30.3954 178.683 23.4817C178.683 16.5681 173.078 10.9634 166.165 10.9634C159.251 10.9634 153.646 16.5681 153.646 23.4817C153.646 30.3954 159.251 36 166.165 36ZM166.165 32.0469C170.895 32.0469 174.73 28.2121 174.73 23.4817C174.73 18.7513 170.895 14.9166 166.165 14.9166C161.434 14.9166 157.599 18.7513 157.599 23.4817C157.599 28.2121 161.434 32.0469 166.165 32.0469Z" fill="#004164"/>
<mask id="mask0_5_136" style="mask-type:luminance" maskUnits="userSpaceOnUse" x="153" y="10" width="26" height="26">
<path fill-rule="evenodd" clip-rule="evenodd" d="M166.165 36C173.078 36 178.683 30.3954 178.683 23.4817C178.683 16.5681 173.078 10.9634 166.165 10.9634C159.251 10.9634 153.646 16.5681 153.646 23.4817C153.646 30.3954 159.251 36 166.165 36ZM166.165 32.0469C170.895 32.0469 174.73 28.2121 174.73 23.4817C174.73 18.7513 170.895 14.9166 166.165 14.9166C161.434 14.9166 157.599 18.7513 157.599 23.4817C157.599 28.2121 161.434 32.0469 166.165 32.0469Z" fill="black"/>
</mask>
<g mask="url(#mask0_5_136)">
<path d="M172.749 23.4818C172.749 27.1181 169.801 30.066 166.165 30.066V41.9341C176.356 41.9341 184.617 33.6727 184.617 23.4818H172.749ZM166.165 16.8975C169.801 16.8975 172.749 19.8454 172.749 23.4818H184.617C184.617 13.2908 176.356 5.02939 166.165 5.02939V16.8975ZM159.58 23.4818C159.58 19.8454 162.528 16.8975 166.165 16.8975V5.02939C155.974 5.02939 147.712 13.2908 147.712 23.4818H159.58ZM166.165 30.066C162.528 30.066 159.58 27.1181 159.58 23.4818H147.712C147.712 33.6727 155.974 41.9341 166.165 41.9341V30.066ZM168.796 23.4818C168.796 24.9349 167.618 26.1129 166.165 26.1129V37.981C174.172 37.981 180.664 31.4894 180.664 23.4818H168.796ZM166.165 20.8507C167.618 20.8507 168.796 22.0286 168.796 23.4818H180.664C180.664 15.4741 174.172 8.98254 166.165 8.98254V20.8507ZM163.533 23.4818C163.533 22.0286 164.711 20.8507 166.165 20.8507V8.98254C158.157 8.98254 151.665 15.4741 151.665 23.4818H163.533ZM166.165 26.1129C164.711 26.1129 163.533 24.9349 163.533 23.4818H151.665C151.665 31.4894 158.157 37.981 166.165 37.981V26.1129Z" fill="#004164"/>
</g>
<path d="M166.171 28.0976C168.717 28.0976 170.781 26.0337 170.781 23.4878C170.781 20.9419 168.717 18.8781 166.171 18.8781C163.625 18.8781 161.561 20.9419 161.561 23.4878C161.561 26.0337 163.625 28.0976 166.171 28.0976Z" fill="#FF5C00"/>
<path d="M153.161 10.9634L151.011 13.3603L161.453 22.7279L163.603 20.331L153.161 10.9634Z" fill="#FF5C00"/>
</g>
<defs>
<clipPath id="clip0_5_136">
<rect width="178.813" height="36" fill="white"/>
</clipPath>
</defs>
</svg>
